<svg xmlns="http://www.w3.org/2000/svg" width="93.692" height="21.86" viewBox="0 0 93.692 21.86"><g transform="translate(-219.377 -213.516)"><g transform="translate(219.377 213.516)"><path d="M223.928,223.906a.928.928,0,0,1,.933-.928l1.546.005a.929.929,0,0,1,.929.929v5.846c.174-.052.4-.107.642-.164a.774.774,0,0,0,.6-.754v-7.251a.93.93,0,0,1,.929-.93h1.551a.93.93,0,0,1,.929.929v6.73s.388-.157.766-.316a.776.776,0,0,0,.474-.714v-8.024a.929.929,0,0,1,.929-.929H235.7a.929.929,0,0,1,.929.929v6.607a18.168,18.168,0,0,0,3.784-3.552,1.56,1.56,0,0,0,.237-1.456,10.941,10.941,0,1,0-19.822,9.041,1.384,1.384,0,0,0,1.32.684c.293-.026.658-.062,1.092-.113a.774.774,0,0,0,.687-.768v-5.8" transform="translate(-219.377 -213.516)" fill="#c7def0"/><path d="M244.417,279.45A10.945,10.945,0,0,0,261.8,270.6c0-.253-.012-.5-.029-.749-4,5.964-11.383,8.753-17.355,9.6" transform="translate(-239.899 -259.684)" fill="#f0b90b"/></g><g transform="translate(244.748 216.03)"><path d="M2.969-19.79H1.437l-.271.769H.36L1.767-22.8h.872l1.4,3.778H3.234Zm-.206-.579L2.2-21.982l-.563,1.613Zm5.2-1.689a1.288,1.288,0,0,1,.682.184,1.243,1.243,0,0,1,.474.533,1.849,1.849,0,0,1,.171.82,1.849,1.849,0,0,1-.171.82,1.243,1.243,0,0,1-.474.533,1.288,1.288,0,0,1-.682.184,1.127,1.127,0,0,1-.647-.182.992.992,0,0,1-.382-.484v2.057H6.174V-22.02h.763v.623a.977.977,0,0,1,.382-.482,1.139,1.139,0,0,1,.647-.179Zm-.238.666a.755.755,0,0,0-.571.235.883.883,0,0,0-.225.637.876.876,0,0,0,.225.632.755.755,0,0,0,.571.235.751.751,0,0,0,.574-.23.891.891,0,0,0,.217-.636A.9.9,0,0,0,8.3-21.16a.746.746,0,0,0-.574-.233Zm3.14-.054a1.254,1.254,0,0,1,.444-.452,1.179,1.179,0,0,1,.617-.165v.817h-.222q-.839,0-.839.779v1.445H10.1v-3h.763Zm3.14-.612a1.663,1.663,0,0,1,.788.184,1.347,1.347,0,0,1,.549.533,1.62,1.62,0,0,1,.2.82,1.6,1.6,0,0,1-.2.817,1.37,1.37,0,0,1-.549.533,1.643,1.643,0,0,1-.788.187,1.643,1.643,0,0,1-.788-.187,1.37,1.37,0,0,1-.549-.533,1.6,1.6,0,0,1-.2-.817,1.62,1.62,0,0,1,.2-.82,1.347,1.347,0,0,1,.549-.533,1.663,1.663,0,0,1,.788-.184Zm0,.66a.732.732,0,0,0-.541.225.89.89,0,0,0-.222.652.89.89,0,0,0,.222.651.732.732,0,0,0,.541.225.732.732,0,0,0,.541-.225.89.89,0,0,0,.222-.651.89.89,0,0,0-.222-.652.732.732,0,0,0-.541-.225Zm3.524-.66a1.139,1.139,0,0,1,.647.179,1.008,1.008,0,0,1,.387.482v-1.629h.758v4.006h-.758v-.628a1.024,1.024,0,0,1-.388.484,1.127,1.127,0,0,1-.646.182,1.288,1.288,0,0,1-.682-.184,1.243,1.243,0,0,1-.474-.533,1.849,1.849,0,0,1-.171-.82,1.849,1.849,0,0,1,.171-.82,1.243,1.243,0,0,1,.474-.533,1.288,1.288,0,0,1,.682-.184Zm.238.666a.746.746,0,0,0-.574.233.9.9,0,0,0-.217.639.891.891,0,0,0,.217.636.751.751,0,0,0,.574.23.755.755,0,0,0,.57-.235.876.876,0,0,0,.225-.632.883.883,0,0,0-.225-.635A.755.755,0,0,0,17.769-21.392Zm5.386-.628v3h-.763v-.606a.956.956,0,0,1-.392.474,1.167,1.167,0,0,1-.632.171,1.062,1.062,0,0,1-.828-.341,1.369,1.369,0,0,1-.309-.953V-22.02h.758v1.656a.783.783,0,0,0,.184.555.648.648,0,0,0,.5.2.68.68,0,0,0,.525-.211.862.862,0,0,0,.195-.606v-1.591Zm2.311-.038a1.484,1.484,0,0,1,.966.314,1.371,1.371,0,0,1,.484.855H26.11a.623.623,0,0,0-.222-.376.682.682,0,0,0-.438-.138.654.654,0,0,0-.506.225.951.951,0,0,0-.2.658.951.951,0,0,0,.2.658.654.654,0,0,0,.507.225.682.682,0,0,0,.438-.138.623.623,0,0,0,.222-.376h.807a1.371,1.371,0,0,1-.484.855,1.484,1.484,0,0,1-.966.314,1.6,1.6,0,0,1-.779-.187,1.313,1.313,0,0,1-.53-.533,1.678,1.678,0,0,1-.189-.817,1.694,1.694,0,0,1,.189-.82,1.291,1.291,0,0,1,.53-.533,1.615,1.615,0,0,1,.779-.184Zm3.865,2.382v.655h-.4a1.108,1.108,0,0,1-.771-.244,1.054,1.054,0,0,1-.268-.812v-1.3h-.417v-.644h.417v-.742h.763v.742h.671v.644h-.671v1.31a.423.423,0,0,0,.087.3.4.4,0,0,0,.292.087Zm3.654-2.382a1.663,1.663,0,0,1,.788.184,1.347,1.347,0,0,1,.549.533,1.62,1.62,0,0,1,.2.82,1.6,1.6,0,0,1-.2.817,1.37,1.37,0,0,1-.549.533,1.643,1.643,0,0,1-.788.187,1.643,1.643,0,0,1-.789-.187,1.37,1.37,0,0,1-.549-.533,1.6,1.6,0,0,1-.2-.817,1.62,1.62,0,0,1,.2-.82,1.347,1.347,0,0,1,.549-.533A1.663,1.663,0,0,1,32.985-22.058Zm0,.66a.732.732,0,0,0-.541.225.89.89,0,0,0-.222.652.89.89,0,0,0,.222.651.732.732,0,0,0,.541.225.732.732,0,0,0,.541-.225.89.89,0,0,0,.222-.651.89.89,0,0,0-.222-.652A.732.732,0,0,0,32.985-21.4Zm3.832-1.142a.652.652,0,0,0-.471.1.535.535,0,0,0-.135.417v.005h.606v.644h-.606v2.355h-.763v-2.355h-.384v-.644h.384v-.07a1.083,1.083,0,0,1,.306-.825,1.273,1.273,0,0,1,.907-.29q.1,0,.157.005Zm3.075.428v.8h1.294v.7H39.892v.85h1.456v.742H38.966v-3.827h2.382v.736Zm3.962,2.3v.8h-.417a1.2,1.2,0,0,1-.825-.263,1.113,1.113,0,0,1-.3-.869v-1.11h-.406v-.779h.406v-.742h.926v.742h.606v.779h-.606v1.126a.339.339,0,0,0,.072.249.349.349,0,0,0,.246.07Zm2.707-2.257a1.045,1.045,0,0,1,.825.346,1.389,1.389,0,0,1,.307.953v1.754h-.926v-1.646a.666.666,0,0,0-.16-.474.555.555,0,0,0-.425-.171.578.578,0,0,0-.447.179.722.722,0,0,0-.165.509v1.6h-.926v-4.006h.926v1.537a1,1,0,0,1,.387-.428A1.135,1.135,0,0,1,46.561-22.075Zm4.883,1.462a1.277,1.277,0,0,1-.027.249H49.322a.7.7,0,0,0,.173.49.559.559,0,0,0,.4.149.547.547,0,0,0,.341-.1.48.48,0,0,0,.179-.265h.98a1.281,1.281,0,0,1-.26.571,1.385,1.385,0,0,1-.509.4,1.611,1.611,0,0,1-.687.144,1.624,1.624,0,0,1-.788-.187,1.335,1.335,0,0,1-.539-.54,1.671,1.671,0,0,1-.195-.823,1.686,1.686,0,0,1,.192-.826,1.317,1.317,0,0,1,.539-.536,1.639,1.639,0,0,1,.79-.187,1.639,1.639,0,0,1,.79.184,1.3,1.3,0,0,1,.528.517A1.539,1.539,0,0,1,51.444-20.613Zm-.936-.141a.556.556,0,0,0-.16-.447.588.588,0,0,0-.409-.149.606.606,0,0,0-.422.152.635.635,0,0,0-.189.444Zm2.615-.72a1.313,1.313,0,0,1,.447-.438,1.14,1.14,0,0,1,.593-.162v.991H53.9a.915.915,0,0,0-.571.157.632.632,0,0,0-.2.53v1.375H52.2v-3.021h.926Zm2.8-.606a1.386,1.386,0,0,1,.918.287,1.247,1.247,0,0,1,.43.758H56.4a.48.48,0,0,0-.171-.29.518.518,0,0,0-.333-.106.364.364,0,0,0-.238.068.236.236,0,0,0-.081.192.225.225,0,0,0,.149.211,2.374,2.374,0,0,0,.469.141,4.65,4.65,0,0,1,.568.165.938.938,0,0,1,.384.273.756.756,0,0,1,.162.509.78.78,0,0,1-.141.46.926.926,0,0,1-.406.314,1.586,1.586,0,0,1-.628.114,1.617,1.617,0,0,1-.98-.271,1.142,1.142,0,0,1-.449-.774H55.6a.4.4,0,0,0,.165.3.622.622,0,0,0,.371.1.345.345,0,0,0,.238-.073.246.246,0,0,0,.081-.192.231.231,0,0,0-.149-.225,2.737,2.737,0,0,0-.484-.144,3.874,3.874,0,0,1-.552-.152.912.912,0,0,1-.374-.263.731.731,0,0,1-.157-.5.808.808,0,0,1,.309-.658A1.344,1.344,0,0,1,55.92-22.08Zm3.54,0a1.5,1.5,0,0,1,.98.322,1.428,1.428,0,0,1,.5.885h-.98a.517.517,0,0,0-.179-.3.529.529,0,0,0-.341-.108.5.5,0,0,0-.4.192.868.868,0,0,0-.157.559.868.868,0,0,0,.157.56.5.5,0,0,0,.4.193.529.529,0,0,0,.341-.108.517.517,0,0,0,.179-.3h.98a1.428,1.428,0,0,1-.5.884,1.5,1.5,0,0,1-.98.323,1.624,1.624,0,0,1-.788-.187,1.335,1.335,0,0,1-.539-.539,1.671,1.671,0,0,1-.195-.823,1.686,1.686,0,0,1,.192-.826,1.317,1.317,0,0,1,.539-.536A1.639,1.639,0,0,1,59.46-22.08Zm3.378,0a1.093,1.093,0,0,1,.6.157.944.944,0,0,1,.368.428v-.547h.92v3.021H63.8v-.547a.944.944,0,0,1-.368.428,1.093,1.093,0,0,1-.6.157,1.223,1.223,0,0,1-.669-.187,1.278,1.278,0,0,1-.466-.539,1.867,1.867,0,0,1-.171-.823,1.862,1.862,0,0,1,.171-.825,1.281,1.281,0,0,1,.466-.536A1.223,1.223,0,0,1,62.838-22.08Zm.3.812a.624.624,0,0,0-.479.195.764.764,0,0,0-.181.541.764.764,0,0,0,.181.541.624.624,0,0,0,.479.195.626.626,0,0,0,.479-.2.754.754,0,0,0,.187-.536.752.752,0,0,0-.187-.539.63.63,0,0,0-.479-.2Zm4.412-.807a1.045,1.045,0,0,1,.826.346,1.389,1.389,0,0,1,.307.953v1.754h-.926v-1.646a.666.666,0,0,0-.16-.474.555.555,0,0,0-.425-.171.578.578,0,0,0-.447.179.722.722,0,0,0-.165.509v1.6h-.927v-3.021h.926v.552a1,1,0,0,1,.387-.428A1.135,1.135,0,0,1,67.548-22.075Z" transform="translate(-0.36 35.541)" fill="#c7def0" opacity="0.8"/><path d="M9.727-46.979a2.225,2.225,0,0,1,1.332.786,2.231,2.231,0,0,1,.5,1.449,2.289,2.289,0,0,1-.773,1.825,3.33,3.33,0,0,1-2.241.669H4.608v-9.172H8.466a3.3,3.3,0,0,1,2.137.611,2.087,2.087,0,0,1,.747,1.714,2.138,2.138,0,0,1-.448,1.4,2.084,2.084,0,0,1-1.176.715Zm-3.287-.6H8.089a1.57,1.57,0,0,0,1.047-.305,1.09,1.09,0,0,0,.357-.877,1.12,1.12,0,0,0-.351-.884,1.587,1.587,0,0,0-1.078-.312H6.44Zm1.741,3.832A1.726,1.726,0,0,0,9.3-44.062a1.13,1.13,0,0,0,.39-.929,1.159,1.159,0,0,0-.4-.942,1.705,1.705,0,0,0-1.124-.331H6.44v2.52Zm7.145-5.794a3.174,3.174,0,0,1,2.1.663,2.869,2.869,0,0,1,.987,1.767H16.7a1.425,1.425,0,0,0-.468-.831,1.406,1.406,0,0,0-.948-.312,1.09,1.09,0,0,0-.728.221.744.744,0,0,0-.26.6.608.608,0,0,0,.208.481,1.5,1.5,0,0,0,.52.286q.312.1.9.247a9.219,9.219,0,0,1,1.332.383,2.2,2.2,0,0,1,.884.637,1.755,1.755,0,0,1,.37,1.176,1.816,1.816,0,0,1-.722,1.494,3.044,3.044,0,0,1-1.942.571,3.673,3.673,0,0,1-2.248-.629,2.649,2.649,0,0,1-1.026-1.8h1.754a1.185,1.185,0,0,0,.468.838,1.7,1.7,0,0,0,1.052.305,1.018,1.018,0,0,0,.715-.227.766.766,0,0,0,.247-.591.653.653,0,0,0-.214-.507,1.447,1.447,0,0,0-.533-.3q-.318-.1-.9-.247a10.176,10.176,0,0,1-1.306-.37,2.085,2.085,0,0,1-.857-.6,1.7,1.7,0,0,1-.357-1.143,1.872,1.872,0,0,1,.715-1.52,3.029,3.029,0,0,1,1.974-.585Zm7.782,0a3.562,3.562,0,0,1,2.319.754,3.292,3.292,0,0,1,1.163,2.053H24.653a1.5,1.5,0,0,0-.533-.9,1.636,1.636,0,0,0-1.052-.331,1.57,1.57,0,0,0-1.215.539,2.281,2.281,0,0,0-.487,1.578,2.281,2.281,0,0,0,.487,1.578,1.57,1.57,0,0,0,1.215.539,1.636,1.636,0,0,0,1.052-.331,1.5,1.5,0,0,0,.533-.9h1.936a3.292,3.292,0,0,1-1.163,2.053,3.562,3.562,0,0,1-2.318.751,3.831,3.831,0,0,1-1.871-.447,3.151,3.151,0,0,1-1.273-1.28,4.028,4.028,0,0,1-.455-1.962,4.065,4.065,0,0,1,.455-1.968,3.1,3.1,0,0,1,1.273-1.28A3.877,3.877,0,0,1,23.108-49.538ZM34.19-44.757a2.487,2.487,0,0,1-.351,1.293,2.519,2.519,0,0,1-1.039.948,3.6,3.6,0,0,1-1.676.356,4.349,4.349,0,0,1-1.741-.331,2.943,2.943,0,0,1-1.227-.955A2.755,2.755,0,0,1,27.63-44.9h1.949a1.489,1.489,0,0,0,.448.929,1.406,1.406,0,0,0,1.02.37,1.187,1.187,0,0,0,.877-.305,1.065,1.065,0,0,0,.305-.786,1.03,1.03,0,0,0-.247-.708,1.8,1.8,0,0,0-.624-.448q-.377-.169-1.039-.39a10.273,10.273,0,0,1-1.4-.565,2.594,2.594,0,0,1-.929-.812,2.326,2.326,0,0,1-.383-1.389,2.26,2.26,0,0,1,.851-1.864,3.5,3.5,0,0,1,2.254-.682,3.57,3.57,0,0,1,2.319.7,2.648,2.648,0,0,1,.98,1.87H32.033a1.375,1.375,0,0,0-.415-.812,1.291,1.291,0,0,0-.922-.318,1.217,1.217,0,0,0-.818.266.96.96,0,0,0-.313.774.961.961,0,0,0,.24.669,1.834,1.834,0,0,0,.611.435,10.021,10.021,0,0,0,1.007.377A13.386,13.386,0,0,1,32.858-47a2.529,2.529,0,0,1,.942.818,2.4,2.4,0,0,1,.39,1.428Zm4.586-4.782a3.562,3.562,0,0,1,2.319.754,3.292,3.292,0,0,1,1.163,2.053H40.322a1.5,1.5,0,0,0-.533-.9,1.636,1.636,0,0,0-1.052-.331,1.57,1.57,0,0,0-1.215.539,2.281,2.281,0,0,0-.487,1.578,2.281,2.281,0,0,0,.487,1.578,1.57,1.57,0,0,0,1.215.539,1.636,1.636,0,0,0,1.052-.331,1.5,1.5,0,0,0,.533-.9h1.936a3.292,3.292,0,0,1-1.163,2.051,3.562,3.562,0,0,1-2.319.753,3.831,3.831,0,0,1-1.871-.447,3.151,3.151,0,0,1-1.273-1.28,4.028,4.028,0,0,1-.455-1.962,4.065,4.065,0,0,1,.455-1.968A3.1,3.1,0,0,1,36.9-49.1a3.877,3.877,0,0,1,1.871-.442Zm7.6,0a2.766,2.766,0,0,1,1.559.429,2.335,2.335,0,0,1,.922,1.156v-1.494h1.819v7.2H48.857v-1.507a2.37,2.37,0,0,1-.922,1.163,2.735,2.735,0,0,1-1.559.434,3.092,3.092,0,0,1-1.637-.442,2.984,2.984,0,0,1-1.137-1.28,4.438,4.438,0,0,1-.409-1.968,4.438,4.438,0,0,1,.409-1.968,2.984,2.984,0,0,1,1.137-1.28A3.092,3.092,0,0,1,46.376-49.538Zm.572,1.6a1.792,1.792,0,0,0-1.377.559,2.165,2.165,0,0,0-.52,1.534,2.139,2.139,0,0,0,.52,1.527,1.8,1.8,0,0,0,1.377.552,1.812,1.812,0,0,0,1.371-.565,2.1,2.1,0,0,0,.539-1.514,2.12,2.12,0,0,0-.539-1.526A1.812,1.812,0,0,0,46.947-47.94Zm9.679-1.611a2.549,2.549,0,0,1,1.988.818,3.308,3.308,0,0,1,.74,2.3v4.183H57.535v-3.975a1.879,1.879,0,0,0-.442-1.332,1.57,1.57,0,0,0-1.209-.474,1.616,1.616,0,0,0-1.247.507,2.069,2.069,0,0,0-.468,1.455v3.819h-1.83v-7.2H54.17v1.441a2.293,2.293,0,0,1,.942-1.137,2.8,2.8,0,0,1,1.514-.409Z" transform="translate(-4.134 51.552)" fill="#c7def0"/></g></g></svg>