<svg id="Сгруппировать_12" data-name="Сгруппировать 12" xmlns="http://www.w3.org/2000/svg" width="24.481" height="24.731" viewBox="0 0 24.481 24.731">
  <path id="Контур_52" data-name="Контур 52" d="M4.39,4.5a3.266,3.266,0,1,1,6.477-.6V7.927q.677-.048,1.374-.048.669,0,1.321.044V3.9a3.266,3.266,0,1,1,6.477.6l-.884,4.733c3.033,1.324,5.327,3.624,5.327,6.515V17.5c0,2.377-1.572,4.367-3.771,5.71a16.47,16.47,0,0,1-8.47,2.159,16.47,16.47,0,0,1-8.47-2.159C1.572,21.863,0,19.873,0,17.5V15.748c0-2.875,2.27-5.166,5.278-6.493ZM18.021,9.855l1.034-5.538a2.267,2.267,0,1,0-4.5-.416V9.025q-.492-.063-1-.1-.65-.046-1.321-.047-.7,0-1.374.051-.507.038-1,.1V3.9a2.267,2.267,0,1,0-4.5.416L6.41,9.873C3.166,11.078,1,13.259,1,15.748V17.5c0,3.794,5.033,6.87,11.241,6.87s11.241-3.076,11.241-6.87V15.748C23.482,13.246,21.293,11.056,18.021,9.855Z" transform="translate(0 -0.635)" fill="#633001" fill-rule="evenodd"/>
  <path id="Контур_53" data-name="Контур 53" d="M23.482,17.5c0,3.794-5.033,6.87-11.241,6.87S1,21.291,1,17.5V15.748H23.482Z" transform="translate(0 -0.635)" fill="#fedc90"/>
  <path id="Контур_54" data-name="Контур 54" d="M5.372,4.317a2.267,2.267,0,1,1,4.5-.416V9.031a18.442,18.442,0,0,1,4.693-.007V3.9a2.267,2.267,0,1,1,4.5.416L18.021,9.855c3.271,1.2,5.461,3.391,5.461,5.893,0,3.794-5.033,6.87-11.241,6.87S1,19.542,1,15.748c0-2.489,2.167-4.67,5.411-5.875Z" transform="translate(0 -0.635)" fill="#d1884f" fill-rule="evenodd"/>
  <path id="Контур_55" data-name="Контур 55" d="M9.118,15.248c0,1.035-.559,1.874-1.249,1.874S6.62,16.283,6.62,15.248s.559-1.873,1.249-1.873S9.118,14.214,9.118,15.248Z" transform="translate(0 -0.635)" fill="#633001"/>
  <path id="Контур_56" data-name="Контур 56" d="M17.736,15.248c0,1.035-.559,1.874-1.249,1.874s-1.249-.839-1.249-1.874.559-1.873,1.249-1.873S17.736,14.214,17.736,15.248Z" transform="translate(0 -0.635)" fill="#633001"/>
</svg>
